<svg width="30" height="58" viewBox="0 0 30 58" fill="none" xmlns="http://www.w3.org/2000/svg">
<path d="M26 0H4C2.93948 0.0011118 1.9227 0.422896 1.1728 1.1728C0.422895 1.92271 0.0011118 2.93948 0 4V49C1.1528e-05 49.1763 0.0466263 49.3494 0.135118 49.5019C0.223611 49.6544 0.350836 49.7807 0.503901 49.8682L14.5039 57.8682C14.655 57.9545 14.826 57.9999 15 57.9999C15.174 57.9999 15.345 57.9545 15.4961 57.8682L29.4961 49.8682C29.6492 49.7807 29.7764 49.6544 29.8649 49.5019C29.9534 49.3494 30 49.1763 30 49V4C29.9989 2.93948 29.5771 1.92271 28.8272 1.1728C28.0773 0.422896 27.0605 0.0011118 26 0Z" fill="#EA9942"/>
<path d="M15 54.5449C15.174 54.545 15.345 54.4995 15.4961 54.4131L26.4961 48.127C26.6492 48.0395 26.7764 47.9132 26.8649 47.7607C26.9534 47.6082 27 47.4351 27 47.2588V0.142C26.6741 0.0520806 26.338 0.00435746 26 0H4C3.66196 0.00435746 3.32589 0.0520806 3 0.142V47.2588C3.00001 47.4351 3.04663 47.6082 3.13512 47.7607C3.22361 47.9132 3.35084 48.0395 3.5039 48.127L14.5039 54.4131C14.655 54.4995 14.826 54.545 15 54.5449Z" fill="#E0892B"/>
<path d="M15 54.5449C15.174 54.545 15.345 54.4995 15.4961 54.4131L26.4961 48.127C26.6492 48.0395 26.7764 47.9132 26.8649 47.7607C26.9534 47.6082 27 47.4351 27 47.2588V0.142C26.6741 0.0520806 26.338 0.00435746 26 0H4C3.66196 0.00435746 3.32589 0.0520806 3 0.142V47.2588C3.00001 47.4351 3.04663 47.6082 3.13512 47.7607C3.22361 47.9132 3.35084 48.0395 3.5039 48.127L14.5039 54.4131C14.655 54.4995 14.826 54.545 15 54.5449Z" fill="url(#paint0_linear_4_42)" fill-opacity="0.3" style="mix-blend-mode:soft-light"/>
<path d="M22.26 24.5469C22.2022 24.3694 22.0959 24.2117 21.9532 24.0914C21.8105 23.9711 21.637 23.8931 21.4523 23.8662L17.6135 23.3086L15.8965 19.83C15.8045 19.6741 15.6734 19.5448 15.5162 19.455C15.359 19.3652 15.1811 19.318 15 19.318C14.8189 19.318 14.641 19.3652 14.4838 19.455C14.3266 19.5448 14.1955 19.6741 14.1035 19.83L12.3867 23.3085L8.5479 23.8661C8.36312 23.8928 8.18951 23.9707 8.04671 24.091C7.90391 24.2112 7.79764 24.3691 7.73991 24.5466C7.68219 24.7242 7.67532 24.9143 7.72008 25.0956C7.76484 25.2768 7.85945 25.4419 7.9932 25.5722L10.7715 28.28L10.1152 32.1037C10.0838 32.2875 10.1044 32.4764 10.1746 32.6491C10.2449 32.8218 10.362 32.9714 10.5129 33.0811C10.6637 33.1907 10.8421 33.256 11.0281 33.2696C11.214 33.2831 11.4001 33.2445 11.5652 33.1579L15 31.3525L18.4346 33.1577C18.5997 33.2443 18.7858 33.2829 18.9717 33.2694C19.1577 33.2558 19.3361 33.1905 19.4869 33.0809C19.6378 32.9712 19.7549 32.8216 19.8252 32.6489C19.8954 32.4762 19.916 32.2873 19.8846 32.1035L19.2285 28.28L22.0068 25.5725C22.1404 25.4421 22.2349 25.277 22.2796 25.0958C22.3243 24.9146 22.3176 24.7245 22.26 24.5469Z" fill="#0D1C31"/>
<defs>
<linearGradient id="paint0_linear_4_42" x1="15" y1="0" x2="15" y2="56.5" gradientUnits="userSpaceOnUse">
<stop/>
<stop offset="1" stop-color="white" stop-opacity="0"/>
</linearGradient>
</defs>
</svg>
