<svg width="23" height="23" viewBox="0 0 23 23" fill="none" xmlns="http://www.w3.org/2000/svg">
<path d="M22.4415 10.1446L20.8728 8.57621C20.5005 8.20392 20.1954 7.4682 20.1954 6.94058V4.72254C20.1954 3.66742 19.3335 2.80548 18.2786 2.80491H16.0596C15.5326 2.80491 14.796 2.49927 14.4237 2.12726L12.8553 0.558905C12.1101 -0.186302 10.8899 -0.186302 10.1447 0.558905L8.57627 2.12838C8.20363 2.50068 7.46621 2.80548 6.94032 2.80548H4.72223C3.66849 2.80548 2.8054 3.66742 2.8054 4.72254V6.94064C2.8054 7.46618 2.50037 8.2042 2.12801 8.57627L0.559339 10.1446C-0.186446 10.8898 -0.186446 12.11 0.559339 12.8564L2.12801 14.4247C2.50059 14.797 2.8054 15.5347 2.8054 16.0603V18.2784C2.8054 19.3324 3.66849 20.1955 4.72223 20.1955H6.94038C7.46739 20.1955 8.20396 20.5005 8.57632 20.8726L10.1447 22.4415C10.8899 23.1862 12.1101 23.1862 12.8553 22.4415L14.4237 20.8726C14.7964 20.5003 15.5327 20.1955 16.0597 20.1955H18.2787C19.3335 20.1955 20.1955 19.3324 20.1955 18.2784V16.0603C20.1955 15.5325 20.5008 14.7968 20.8729 14.4247L22.4416 12.8564C23.1862 12.11 23.1862 10.8898 22.4415 10.1446ZM9.9785 15.8127L5.74951 11.5833L7.10485 10.2282L9.97883 13.1021L15.8949 7.1876L17.2499 8.54263L9.9785 15.8127Z" fill="#E0892B"/>
</svg>
