<svg width="134" height="25" viewBox="0 0 134 25" fill="none" xmlns="http://www.w3.org/2000/svg">
<path fill-rule="evenodd" clip-rule="evenodd" d="M37.6942 14.1545V17.917C37.0186 19.8342 35.3433 21.1914 33.3823 21.1914C30.8258 21.1914 28.7529 18.8835 28.7529 16.0361C28.7529 13.1894 30.8258 10.8808 33.3823 10.8808C35.3433 10.8808 37.0186 12.238 37.6942 14.1545ZM61.5769 11.4098H66.3725V8.46414H61.5769V3.20911H58.0168V18.5986C58.0168 21.9992 59.9015 24.9237 65.548 23.429V20.4947C62.7301 21.3985 61.5769 20.3322 61.5769 18.5986V11.4098ZM0.105652 23.6119C0.529591 15.3794 1.29661 8.03265 2.95459 0.185608H7.21287L11.7908 17.4394L16.3688 0.185608H20.6263C22.2843 8.03265 23.052 15.3794 23.476 23.6119H19.8986C19.6469 17.3858 19.1414 11.5972 18.1189 5.82604L14.0692 21.1808H9.51167L5.46271 5.82604C4.44026 11.5972 3.93395 17.3858 3.68307 23.6119H0.105652ZM53.6649 12.5569C51.9449 9.95511 46.4654 10.3398 46.9045 12.5985C47.0911 13.5537 49.0522 13.964 50.6036 14.3086C53.6588 14.9887 56.6536 16.2689 56.6536 19.1269C56.6536 22.238 53.6188 23.8922 50.8711 24.1582C47.0428 24.5293 43.4314 22.5531 42.3931 18.6719L45.4596 17.8528C46.0392 20.0201 48.4431 21.1778 50.5371 21.1778C54.3828 21.1778 54.3382 18.3878 49.8388 17.3873C46.702 16.689 43.5016 15.557 43.5016 12.6287C43.5016 9.34527 47.175 7.91703 49.9492 7.91703C52.1648 7.91703 54.5286 8.70672 56.0695 10.5438L53.6649 12.5569ZM70.2 14.0335H78.2843C77.6722 12.0416 76.0928 10.8234 74.2414 10.8234C72.39 10.8234 70.8114 12.0416 70.2 14.0335ZM74.2414 7.95179C78.4914 7.95179 81.9366 11.5715 81.9366 16.0361C81.9366 16.3422 81.9192 16.6429 81.8882 16.9407H70.0156C70.8854 22.139 76.7805 22.5274 78.7121 18.0115L81.7265 19.6589C80.3504 22.3045 77.5158 24.1204 74.2414 24.1204C69.9922 24.1204 66.547 20.5007 66.547 16.0361C66.547 11.5715 69.9922 7.95179 74.2414 7.95179ZM84.085 23.6119H87.645V15.0832C87.645 11.8904 89.8766 10.4267 92.6817 11.9909L94.289 8.68329C92.2426 7.50744 89.3181 7.64649 87.645 9.71782V8.46036H84.085V23.6119ZM119.643 1.00553C120.86 1.00553 121.847 1.9917 121.847 3.20911C121.847 4.42576 120.86 5.41268 119.643 5.41268C118.426 5.41268 117.439 4.42576 117.439 3.20911C117.439 1.9917 118.426 1.00553 119.643 1.00553ZM128.378 18.5986V11.4098H133.175V8.46414H128.378V3.20911H124.818V18.5986C124.818 21.9992 126.703 24.9237 132.351 23.429V20.4947C129.532 21.3985 128.378 20.3322 128.378 18.5986ZM117.863 23.6119H121.423V8.46112H117.863V23.6119ZM99.2742 23.6119H102.834V15.1845C103.984 13.9874 105.096 12.7806 106.184 11.5549L112.589 23.6119H116.62L108.68 8.6644C110.938 5.97567 113.124 3.17586 115.354 0.185608H110.914C108.29 3.69274 105.652 6.95655 102.834 10.0496V0.185608H99.2742V23.6119ZM37.6942 23.6119H41.2542V8.46036H37.6942V10.3239C36.3687 8.85861 34.5369 7.95179 32.5132 7.95179C28.4696 7.95179 25.1921 11.5715 25.1921 16.0361C25.1921 20.5007 28.4696 24.1204 32.5132 24.1204C34.5369 24.1204 36.3687 23.2136 37.6942 21.7483V23.6119Z" fill="white"/>
</svg>
