<svg width="49" height="31" viewBox="0 0 49 31" fill="none" xmlns="http://www.w3.org/2000/svg">
<path d="M37.2009 0C33.5575 0 30.092 1.63335 27.2704 3.94526C25.4614 5.21544 18.8431 11.6488 18.8431 11.6488C12.9349 6.12547 9.62312 5.06984 6.71657 5.04224C4.10477 5.01464 0 7.25543 0 14.7611C0 22.2667 3.94526 23.4406 5.60035 23.4406C7.97247 23.4627 10.1307 22.1862 11.8935 20.6308C14.0105 18.8795 18.6101 15.146 18.6101 15.146C18.6101 15.146 24.018 19.7263 28.4636 23.9795C32.9093 28.2327 36.0442 30.5473 39.6643 30.5422C43.2845 30.5369 48.2477 26.2312 48.2477 15.4924C48.2477 4.75356 41.6273 0 37.2009 0ZM32.813 7.89052C36.7586 7.86492 40.0644 10.8695 40.4149 14.7995C40.7653 18.7296 39.4998 21.6942 35.2081 21.6942C30.9164 21.6942 20.9195 13.4524 20.9195 13.4524L20.9182 13.4527L18.843 11.6489C19.5426 10.9741 19.9773 10.5552 20.1471 10.3922C21.293 11.4289 22.2715 12.305 24.1673 11.2661C24.3213 11.1707 24.4786 11.0753 24.6392 10.9794L24.6431 10.9773L24.8066 10.8798C27.2696 9.42351 30.4285 7.89052 32.813 7.89052ZM16.5346 13.8304L16.7428 13.9435C17.5336 14.3779 18.156 14.7786 18.6102 15.1457C18.5676 15.1813 17.2116 16.2818 17.2116 16.2818C16.3519 15.5039 15.9387 15.2347 14.788 15.4981C14.2818 15.614 13.6329 15.833 12.7403 16.1571C12.7385 16.1544 12.7367 16.1516 12.735 16.1487C12.2466 16.3156 11.7252 16.4354 11.1622 16.4931C8.91052 16.7241 7.83279 15.8965 7.83279 14.915C7.85457 13.441 9.08172 12.6846 10.9698 12.6441C12.8578 12.6035 14.8801 12.92 16.5346 13.8304Z" fill="#E0892B"/>
</svg>
