<svg width="76" height="97" viewBox="0 0 76 97" fill="none" xmlns="http://www.w3.org/2000/svg">
<path d="M56.7967 30.64C56.7967 26.3467 55.2567 22.7533 52.1767 19.86C49.0967 16.9667 44.6167 15.52 38.7367 15.52C32.8567 15.52 28.0034 17.1533 24.1767 20.42C20.3501 23.6867 17.8301 28.3533 16.6167 34.42L0.0967189 31.2C1.59005 22.24 5.60339 14.8667 12.1367 9.08C18.7634 3.29333 27.8634 0.399992 39.4367 0.399992C50.5434 0.399992 59.1301 3.19999 65.1967 8.79999C71.3567 14.3067 74.4367 21.4933 74.4367 30.36C74.4367 34.56 73.7834 38.2933 72.4767 41.56C71.1701 44.8267 69.3501 47.86 67.0167 50.66C64.6834 53.3667 61.8834 55.98 58.6167 58.5C55.3501 61.02 51.7567 63.6333 47.8367 66.34L26.4167 81.04H75.5567V97H1.63672V80.48L36.2167 56.54C42.8434 51.9667 47.9301 47.86 51.4767 44.22C55.0234 40.58 56.7967 36.0533 56.7967 30.64Z" fill="#E0892B"/>
<path d="M56.7967 30.64C56.7967 26.3467 55.2567 22.7533 52.1767 19.86C49.0967 16.9667 44.6167 15.52 38.7367 15.52C32.8567 15.52 28.0034 17.1533 24.1767 20.42C20.3501 23.6867 17.8301 28.3533 16.6167 34.42L0.0967189 31.2C1.59005 22.24 5.60339 14.8667 12.1367 9.08C18.7634 3.29333 27.8634 0.399992 39.4367 0.399992C50.5434 0.399992 59.1301 3.19999 65.1967 8.79999C71.3567 14.3067 74.4367 21.4933 74.4367 30.36C74.4367 34.56 73.7834 38.2933 72.4767 41.56C71.1701 44.8267 69.3501 47.86 67.0167 50.66C64.6834 53.3667 61.8834 55.98 58.6167 58.5C55.3501 61.02 51.7567 63.6333 47.8367 66.34L26.4167 81.04H75.5567V97H1.63672V80.48L36.2167 56.54C42.8434 51.9667 47.9301 47.86 51.4767 44.22C55.0234 40.58 56.7967 36.0533 56.7967 30.64Z" fill="url(#paint0_radial_64_592)" fill-opacity="0.3" style="mix-blend-mode:overlay"/>
<defs>
<radialGradient id="paint0_radial_64_592" cx="0" cy="0" r="1" gradientUnits="userSpaceOnUse" gradientTransform="translate(82 87) rotate(-119.065) scale(119.556 58.5802)">
<stop stop-color="white"/>
<stop offset="1" stop-color="white" stop-opacity="0"/>
</radialGradient>
</defs>
</svg>
