<svg width="80" height="98" viewBox="0 0 80 98" fill="none" xmlns="http://www.w3.org/2000/svg">
<path d="M39.4752 97.4C28.5552 97.4 19.7352 95.2067 13.0152 90.82C6.38849 86.4333 2.09516 79.62 0.135157 70.38L16.9352 67.02C18.1485 72.2467 20.6685 76.12 24.4952 78.64C28.4152 81.0667 33.5485 82.28 39.8952 82.28C46.9885 82.28 52.4018 80.8333 56.1352 77.94C59.8685 75.0467 61.7352 71.22 61.7352 66.46C61.7352 61.14 59.6818 57.4533 55.5752 55.4C51.5618 53.2533 46.3818 52.18 40.0352 52.18C37.8885 52.18 35.7418 52.3667 33.5952 52.74C31.4485 53.02 29.4885 53.3467 27.7152 53.72L22.9552 41.12L56.2752 16.2H4.89516V0.799999H75.5952V18.86L45.9152 40.28C46.2885 40.28 46.6152 40.28 46.8952 40.28C47.1752 40.28 47.4552 40.28 47.7352 40.28C56.8818 40.28 64.3952 42.4267 70.2752 46.72C76.1552 50.92 79.0952 57.5 79.0952 66.46C79.0952 76.1667 75.5018 83.7733 68.3152 89.28C61.1285 94.6933 51.5152 97.4 39.4752 97.4Z" fill="#E0892B"/>
<path d="M39.4752 97.4C28.5552 97.4 19.7352 95.2067 13.0152 90.82C6.38849 86.4333 2.09516 79.62 0.135157 70.38L16.9352 67.02C18.1485 72.2467 20.6685 76.12 24.4952 78.64C28.4152 81.0667 33.5485 82.28 39.8952 82.28C46.9885 82.28 52.4018 80.8333 56.1352 77.94C59.8685 75.0467 61.7352 71.22 61.7352 66.46C61.7352 61.14 59.6818 57.4533 55.5752 55.4C51.5618 53.2533 46.3818 52.18 40.0352 52.18C37.8885 52.18 35.7418 52.3667 33.5952 52.74C31.4485 53.02 29.4885 53.3467 27.7152 53.72L22.9552 41.12L56.2752 16.2H4.89516V0.799999H75.5952V18.86L45.9152 40.28C46.2885 40.28 46.6152 40.28 46.8952 40.28C47.1752 40.28 47.4552 40.28 47.7352 40.28C56.8818 40.28 64.3952 42.4267 70.2752 46.72C76.1552 50.92 79.0952 57.5 79.0952 66.46C79.0952 76.1667 75.5018 83.7733 68.3152 89.28C61.1285 94.6933 51.5152 97.4 39.4752 97.4Z" fill="url(#paint0_radial_64_600)" fill-opacity="0.3" style="mix-blend-mode:overlay"/>
<defs>
<radialGradient id="paint0_radial_64_600" cx="0" cy="0" r="1" gradientUnits="userSpaceOnUse" gradientTransform="translate(86 86) rotate(-120.159) scale(120.86 60.5819)">
<stop stop-color="white"/>
<stop offset="1" stop-color="white" stop-opacity="0"/>
</radialGradient>
</defs>
</svg>
